<svg version="1.2" xmlns="http://www.w3.org/2000/svg" viewBox="0 0 150 150" width="150" height="150">
	<title>dictionary-svg</title>
	<style>
		.s0 { fill: none } 
		.s1 { fill: #01248c } 
	</style>
	<path id="Layer" fill-rule="evenodd" class="s0" d="m0 0h150v150h-150z"/>
	<path id="Layer" class="s1" d="m78.8 15.2l-57.3-0.4q-0.1 0-0.2 0 0 0-0.1 0-0.1 0-0.2 0 0 0-0.1 0.1-0.1 0-0.2 0 0 0.1-0.1 0.1-0.1 0.1-0.1 0.1-0.1 0.1-0.1 0.1-0.1 0.1-0.1 0.1-0.1 0.1-0.1 0.2-0.1 0-0.1 0.1 0 0.1-0.1 0.1 0 0.1 0 0.2 0 0.1-0.1 0.1 0 0.1 0 0.2 0 0.1 0 0.1v99.7q0 0.1 0 0.2 0 0.1 0.1 0.3 0 0.1 0 0.2 0.1 0.1 0.1 0.2 0.1 0.1 0.2 0.2 0 0.1 0.1 0.2 0.1 0 0.2 0.1 0.1 0.1 0.2 0.1l42.9 25.2q0.1 0 0.2 0 0.1 0.1 0.2 0.1 0.1 0 0.1 0 0.1 0 0.2 0 0.1 0 0.2 0 0.1 0 0.2 0 0.1 0 0.2-0.1 0.1 0 0.1 0 0.1-0.1 0.2-0.2 0.1 0 0.1-0.1 0.1 0 0.1-0.1 0.1-0.1 0.1-0.2 0.1-0.1 0.1-0.1 0.1-0.1 0.1-0.2 0-0.1 0-0.2 0-0.1 0-0.2v-93.2q0-0.1 0-0.2 0-0.1 0-0.2-0.1-0.1-0.1-0.3 0-0.1-0.1-0.2-0.1-0.1-0.1-0.2-0.1-0.1-0.2-0.1-0.1-0.1-0.2-0.2-0.1-0.1-0.2-0.1l-22.8-12.6q-0.1 0-0.1-0.1-0.1 0-0.2-0.1 0-0.1 0-0.1-0.1-0.1-0.1-0.2-0.1-0.1-0.1-0.3 0-0.1 0.1-0.3 0-0.2 0.1-0.3 0.1-0.1 0.3-0.2 0 0 0.1-0.1 0.1 0 0.2 0 0.1 0 0.1 0 0.1 0 0.2 0l41.2 7.1q0.1 0 0.3 0.1 0.1 0 0.2 0.1 0.1 0.1 0.3 0.2 0.1 0 0.2 0.2 0.1 0.1 0.1 0.2 0.1 0.1 0.1 0.2 0.1 0.2 0.1 0.3 0 0.1 0 0.3v83.9q0 0.1 0.1 0.2 0 0.1 0 0.1 0 0.1 0 0.2 0.1 0.1 0.1 0.2 0 0 0.1 0.1 0 0.1 0.1 0.2 0 0 0.1 0.1 0 0.1 0.1 0.1 0.1 0.1 0.1 0.1 0.1 0.1 0.2 0.1 0.1 0.1 0.1 0.1 0.1 0 0.2 0.1 0.1 0 0.2 0 0.1 0 0.1 0 0.1 0 0.2 0 0.1 0 0.2 0c30.5-3.4 51.3-25 51.6-55 0.4-33.5-24.2-55.9-59.9-56.4z"/>
</svg>